HIERARCHY
ROOT Hips
{
    OFFSET   0.000000   0.000000   0.000000
    CHANNELS 6 Xposition Yposition Zposition Zrotation Xrotation Yrotation
    JOINT Chest
    {
        OFFSET   0.000000   8.007230   0.000000
        CHANNELS 3 Zrotation Xrotation Yrotation
        JOINT Chest2
        {
            OFFSET   0.000000  22.077100   0.000000
            CHANNELS 3 Zrotation Xrotation Yrotation
            JOINT Neck
            {
                OFFSET   0.000000  23.254800  -0.000021
                CHANNELS 3 Zrotation Xrotation Yrotation
                JOINT Head
                {
                    OFFSET   0.000000  14.370000   1.956610
                    CHANNELS 3 Zrotation Xrotation Yrotation
                    End Site
                    {
                        OFFSET   0.000000  19.566000   0.000000
                    }
                }
            }
            JOINT LeftCollar
            {
                OFFSET   3.911900  19.017000  -0.467063
                CHANNELS 3 Zrotation Xrotation Yrotation
                JOINT LeftShoulder
                {
                    OFFSET  10.383700   0.000000   0.000000
                    CHANNELS 3 Zrotation Xrotation Yrotation
                    JOINT LeftElbow
                    {
                        OFFSET  26.662100   0.001529   0.000325
                        CHANNELS 3 Zrotation Xrotation Yrotation
                        JOINT LeftWrist
                        {
                            OFFSET  28.869000  -0.000011  -0.000096
                            CHANNELS 3 Zrotation Xrotation Yrotation
                            JOINT LeftFinger0
                            {
                                OFFSET   2.044650  -2.323460   3.252850
                                CHANNELS 3 Zrotation Xrotation Yrotation
                                JOINT LeftFinger01
                                {
                                    OFFSET   3.088130   0.000000   0.000000
                                    CHANNELS 3 Zrotation Xrotation Yrotation
                                    JOINT LeftFinger02
                                    {
                                        OFFSET   2.639460   0.000000   0.000000
                                        CHANNELS 3 Zrotation Xrotation Yrotation
                                        End Site
                                        {
                                            OFFSET   2.582190   0.000000   0.000000
                                        }
                                    }
                                }
                            }
                            JOINT LeftFinger1
                            {
                                OFFSET   8.364480   0.000000   3.252850
                                CHANNELS 3 Zrotation Xrotation Yrotation
                                JOINT LeftFinger11
                                {
                                    OFFSET   4.646930   0.000000   0.000000
                                    CHANNELS 3 Zrotation Xrotation Yrotation
                                    JOINT LeftFinger12
                                    {
                                        OFFSET   2.323460   0.000000   0.000000
                                        CHANNELS 3 Zrotation Xrotation Yrotation
                                        End Site
                                        {
                                            OFFSET   2.273050   0.000000   0.000000
                                        }
                                    }
                                }
                            }
                            JOINT LeftFinger2
                            {
                                OFFSET   8.364480   0.000016   1.078090
                                CHANNELS 3 Zrotation Xrotation Yrotation
                                JOINT LeftFinger21
                                {
                                    OFFSET   5.111620   0.000000   0.000000
                                    CHANNELS 3 Zrotation Xrotation Yrotation
                                    JOINT LeftFinger22
                                    {
                                        OFFSET   2.788160   0.000017   0.000000
                                        CHANNELS 3 Zrotation Xrotation Yrotation
                                        End Site
                                        {
                                            OFFSET   2.727660   0.000000   0.000000
                                        }
                                    }
                                }
                            }
                            JOINT LeftFinger3
                            {
                                OFFSET   7.899780   0.000015  -1.078090
                                CHANNELS 3 Zrotation Xrotation Yrotation
                                JOINT LeftFinger31
                                {
                                    OFFSET   4.646920   0.000000   0.000000
                                    CHANNELS 3 Zrotation Xrotation Yrotation
                                    JOINT LeftFinger32
                                    {
                                        OFFSET   2.323470   0.000000   0.000000
                                        CHANNELS 3 Zrotation Xrotation Yrotation
                                        End Site
                                        {
                                            OFFSET   2.273050   0.000000   0.000000
                                        }
                                    }
                                }
                            }
                            JOINT LeftFinger4
                            {
                                OFFSET   7.435090   0.000000  -3.252850
                                CHANNELS 3 Zrotation Xrotation Yrotation
                                JOINT LeftFinger41
                                {
                                    OFFSET   3.717550   0.000000   0.000000
                                    CHANNELS 3 Zrotation Xrotation Yrotation
                                    JOINT LeftFinger42
                                    {
                                        OFFSET   1.858760   0.000000   0.000000
                                        CHANNELS 3 Zrotation Xrotation Yrotation
                                        End Site
                                        {
                                            OFFSET   1.818440   0.000000   0.000000
                                        }
                                    }
                                }
                            }
                        }
                    }
                }
            }
            JOINT RightCollar
            {
                OFFSET  -3.911900  19.017000  -0.467062
                CHANNELS 3 Zrotation Xrotation Yrotation
                JOINT RightShoulder
                {
                    OFFSET -10.383700   0.000015   0.000000
                    CHANNELS 3 Zrotation Xrotation Yrotation
                    JOINT RightElbow
                    {
                        OFFSET -26.662100   0.001341   0.000385
                        CHANNELS 3 Zrotation Xrotation Yrotation
                        JOINT RightWrist
                        {
                            OFFSET -28.869000   0.000025  -0.000080
                            CHANNELS 3 Zrotation Xrotation Yrotation
                            JOINT RightFinger0
                            {
                                OFFSET  -2.044650  -2.323490   3.252850
                                CHANNELS 3 Zrotation Xrotation Yrotation
                                JOINT RightFinger01
                                {
                                    OFFSET  -3.088130   0.000000   0.000000
                                    CHANNELS 3 Zrotation Xrotation Yrotation
                                    JOINT RightFinger02
                                    {
                                        OFFSET  -2.639460   0.000000   0.000000
                                        CHANNELS 3 Zrotation Xrotation Yrotation
                                        End Site
                                        {
                                            OFFSET  -2.582190   0.000000   0.000000
                                        }
                                    }
                                }
                            }
                            JOINT RightFinger1
                            {
                                OFFSET  -8.364480   0.000000   3.252850
                                CHANNELS 3 Zrotation Xrotation Yrotation
                                JOINT RightFinger11
                                {
                                    OFFSET  -4.646930   0.000000   0.000000
                                    CHANNELS 3 Zrotation Xrotation Yrotation
                                    JOINT RightFinger12
                                    {
                                        OFFSET  -2.323470   0.000000   0.000000
                                        CHANNELS 3 Zrotation Xrotation Yrotation
                                        End Site
                                        {
                                            OFFSET  -2.273050   0.000000   0.000000
                                        }
                                    }
                                }
                            }
                            JOINT RightFinger2
                            {
                                OFFSET  -8.364480   0.000000   1.078090
                                CHANNELS 3 Zrotation Xrotation Yrotation
                                JOINT RightFinger21
                                {
                                    OFFSET  -5.111610   0.000000   0.000000
                                    CHANNELS 3 Zrotation Xrotation Yrotation
                                    JOINT RightFinger22
                                    {
                                        OFFSET  -2.788160   0.000000   0.000000
                                        CHANNELS 3 Zrotation Xrotation Yrotation
                                        End Site
                                        {
                                            OFFSET  -2.727660   0.000000   0.000000
                                        }
                                    }
                                }
                            }
                            JOINT RightFinger3
                            {
                                OFFSET  -7.899780   0.000000  -1.078090
                                CHANNELS 3 Zrotation Xrotation Yrotation
                                JOINT RightFinger31
                                {
                                    OFFSET  -4.646920   0.000000   0.000000
                                    CHANNELS 3 Zrotation Xrotation Yrotation
                                    JOINT RightFinger32
                                    {
                                        OFFSET  -2.323470   0.000000   0.000000
                                        CHANNELS 3 Zrotation Xrotation Yrotation
                                        End Site
                                        {
                                            OFFSET  -2.273050   0.000000   0.000000
                                        }
                                    }
                                }
                            }
                            JOINT RightFinger4
                            {
                                OFFSET  -7.435090   0.000000  -3.252850
                                CHANNELS 3 Zrotation Xrotation Yrotation
                                JOINT RightFinger41
                                {
                                    OFFSET  -3.717550   0.000000   0.000000
                                    CHANNELS 3 Zrotation Xrotation Yrotation
                                    JOINT RightFinger42
                                    {
                                        OFFSET  -1.858770   0.000000   0.000000
                                        CHANNELS 3 Zrotation Xrotation Yrotation
                                        End Site
                                        {
                                            OFFSET  -1.818440   0.000000   0.000000
                                        }
                                    }
                                }
                            }
                        }
                    }
                }
            }
        }
    }
    JOINT LeftHip
    {
        OFFSET   9.783010   0.000000   0.000000
        CHANNELS 3 Zrotation Xrotation Yrotation
        JOINT LeftKnee
        {
            OFFSET   0.000070 -41.789100   0.000028
            CHANNELS 3 Zrotation Xrotation Yrotation
            JOINT LeftAnkle
            {
                OFFSET   0.000087 -41.133200  -0.000100
                CHANNELS 3 Zrotation Xrotation Yrotation
                JOINT LeftToe
                {
                    OFFSET   0.000000  -6.358960  14.674500
                    CHANNELS 3 Zrotation Xrotation Yrotation
                    End Site
                    {
                        OFFSET   0.000000   0.000000   3.913200
                    }
                }
            }
        }
    }
    JOINT RightHip
    {
        OFFSET  -9.783020   0.000000   0.000000
        CHANNELS 3 Zrotation Xrotation Yrotation
        JOINT RightKnee
        {
            OFFSET   0.000044 -41.789100  -0.000870
            CHANNELS 3 Zrotation Xrotation Yrotation
            JOINT RightAnkle
            {
                OFFSET  -0.000090 -41.133200  -0.000245
                CHANNELS 3 Zrotation Xrotation Yrotation
                JOINT RightToe
                {
                    OFFSET   0.000000  -6.358960  14.674500
                    CHANNELS 3 Zrotation Xrotation Yrotation
                    End Site
                    {
                        OFFSET   0.000000   0.000000   3.913200
                    }
                }
            }
        }
    }
}
MOTION
Frames: 5
Frame Time:   0.016667
  1.555740  89.854400  -0.976297  -5.272930 -13.939600 -11.312900  -3.105130   7.723720   0.713712  -6.397230  15.396200   1.879230  -0.223442  -7.766880  -0.030572  -0.381602 -15.749400 -18.968900  -3.466770  -2.888250   4.259800 -64.801300  22.352300  -3.713260  -2.864680  -7.423000 -16.033000  12.540900  -3.535690  11.811100  44.536700  32.890200 -71.336400 -13.996100  -0.073295  -0.018104  -1.997970  -0.029233  -0.035766 -23.225200   5.166520 -11.854700 -19.439200  -0.161017  -0.078076 -13.607400  -0.086397  -0.093956 -27.727200   1.383410  -2.630140 -30.547900  -0.003076  -0.025622 -20.344900  -0.025049  -0.033763 -22.448900   0.765226  -1.851560 -22.461600  -0.300435  -0.178542 -14.959200  -0.121436  -0.198502 -24.781900   0.037093  -0.080248 -37.172500  -0.001365   0.011322 -24.756900   0.009508  -0.129615   6.828700  -2.858260   7.909820  48.364100  -5.153280  61.249800  -4.447930 -31.536100  96.528500  28.441600 -22.337100  31.666400 -39.694800  32.626100  73.412000  24.764900  -0.041993  -0.008361   7.382480  -0.021425  -0.006175  43.986000   2.746490   3.113570  36.013900  -0.036707  -0.005379  26.079000  -0.031185   0.016773  31.796200  -0.620844  -1.167380  45.320200  -0.032656   0.007326  30.183300  -0.013196   0.015777  28.759700  -3.204670  -6.204760  42.118400  -0.047884   0.079881  28.050900  -0.002541   0.063339  47.054800  -4.061080  -3.827750  70.785000  -0.025823  -0.039994  47.142800  -0.030559  -0.007117   1.241030  14.986200   5.849440  -0.270173   1.000100  17.164500  -2.899520  -4.397070   8.821430  -0.000000   0.000000  -0.000000   3.700280   5.855490  -6.808510  -4.092260  15.924400  -5.117700  -8.097150  -3.795870   5.454980   0.000000   0.000000   0.000000
  1.561050  89.882100  -1.011510  -5.284420 -13.814300 -11.466300  -3.101180   7.730370   0.745889  -6.392780  15.407400   1.944020  -0.372290  -8.049010  -0.052133  -0.646456 -16.319600 -19.372700  -3.491510  -2.986400   4.119690 -64.844000  22.305300  -3.596330  -2.901740  -7.513670 -15.815500  12.584900  -3.480830  11.905900  44.457600  32.806700 -71.260900 -14.133900  -0.060941  -0.015291  -2.066960  -0.026745  -0.025228 -23.258400   5.257890 -12.035100 -19.482500  -0.135307  -0.059504 -13.637800  -0.072591  -0.072734 -27.726000   1.351460  -2.569450 -30.537300  -0.003076  -0.014461 -20.337800  -0.014307  -0.019270 -22.503000   0.841729  -2.030040 -22.517500  -0.244343  -0.140248 -14.996500  -0.100583  -0.158494 -24.839000   0.124012  -0.267544 -37.257300  -0.001346   0.011296 -24.813400   0.009485  -0.096743   6.935190  -2.751730   7.870130  49.385200  -5.517430  60.437800  -3.795010 -30.981000  97.370000  34.664700 -21.076600  33.651700 -39.637900  34.482500  74.987000  25.827200  -0.037338  -0.003954   7.913600  -0.018799  -0.006043  47.485300   3.240000   2.654970  38.879200  -0.037372   0.014477  28.527400  -0.031021   0.028595  32.479200  -0.626965  -1.210190  50.606100  -0.045964   0.067147  33.703600  -0.003665   0.055164  29.328200  -1.753870  -3.305380  47.719900  -0.077547   0.158634  31.781400   0.002948   0.118182  49.666300  -3.840740  -3.239310  74.669000  -0.031770  -0.046376  49.729500  -0.036164  -0.007267   1.242260  14.851000   5.910410  -0.284676   1.047380  17.203500  -2.888730  -4.437670   8.869630   0.000000   0.000000  -0.000000   3.725900   5.789550  -6.783450  -4.120650  15.798700  -5.059800  -8.084160  -3.741550   5.524860  -0.000000   0.000000   0.000000
  1.563610  89.900600  -1.033590  -5.310150 -13.707800 -11.650600  -3.086140   7.740480   0.760644  -6.364090  15.427000   1.971690  -0.486574  -8.279030  -0.070011  -0.859197 -16.784600 -19.596000  -3.508360  -3.081220   3.985750 -64.947600  22.165100  -3.462120  -2.919740  -7.620510 -15.556800  12.595100  -3.399080  11.998600  44.477100  32.850700 -71.319500 -14.216400  -0.022389  -0.005648  -2.108220  -0.010593  -0.009989 -23.232300   5.303520 -12.155200 -19.471200  -0.064720  -0.020338 -13.629800  -0.037493  -0.028950 -27.715300   1.353480  -2.574240 -30.482600  -0.003074   0.007381 -20.301400   0.007303   0.011159 -22.494700   0.892095  -2.153320 -22.511100  -0.113263  -0.065018 -14.992300  -0.047756  -0.072729 -24.818500   0.184499  -0.398949 -37.227600  -0.001330   0.011272 -24.793500   0.009459  -0.050265   7.022750  -2.630460   7.862170  50.017300  -5.603440  59.646100  -5.483790  -0.029874  89.885000  37.272900 -20.280300  34.142100 -40.682300  36.838700  77.353500  26.721500  -0.024758  -0.008884   8.360750  -0.012953  -0.006075  46.923500   4.474710   3.758950  38.495300  -0.034598  -0.005904  28.145600  -0.031165   0.008531  32.417100   0.005250  -0.095886  49.122800  -0.053663   0.050938  32.715800  -0.013683   0.045835  29.841100  -0.946095  -1.567200  45.032000  -0.091266   0.157266  29.991200  -0.005708   0.117631  48.113600  -3.570050  -3.252100  72.328100  -0.041162  -0.016650  48.170500  -0.028428   0.012382   1.261880  14.775600   5.919560  -0.300886   1.043400  17.292300  -2.889000  -4.461180   8.942500   0.000000   0.000000   0.000000   3.757890   5.736600  -6.763400  -4.145840  15.683800  -4.984540  -8.082600  -3.704720   5.612740   0.000000   0.000000  -0.000000
  1.564580  89.908100  -1.041910  -5.347380 -13.618100 -11.865000  -3.062630   7.752560   0.764476  -6.318010  15.451500   1.977740  -0.576320  -8.458840  -0.084724  -1.006600 -17.147300 -19.678900  -3.527020  -3.167360   3.913680 -65.093400  21.978700  -3.315230  -2.934440  -7.720840 -15.278100  12.596800  -3.277900  12.081100  44.509800  32.940400 -71.444100 -14.246100   0.005981   0.001585  -2.123050   0.003427  -0.001832 -23.190700   5.321760 -12.215100 -19.440000  -0.013393   0.007280 -13.608000  -0.010874   0.001832 -27.702300   1.365610  -2.598930 -30.410900  -0.003073   0.025635 -20.253700   0.022441   0.032604 -22.464700   0.917087  -2.216240 -22.482100  -0.019617  -0.012493 -14.973100  -0.009665  -0.012119 -24.761400   0.215505  -0.466613 -37.143100  -0.001314   0.011248 -24.737200   0.009432  -0.019656   7.091400  -2.498630   7.860340  50.362600  -5.491490  58.993700  -2.270040 -30.549500 100.436000  37.853000 -19.923100  34.151800 -42.326700  38.800800  79.438100  27.192200  -0.010992  -0.013813   8.596090  -0.006398  -0.006107  44.255300   5.353760   5.502950  36.431200  -0.031823  -0.026285  26.410500  -0.032174  -0.011533  31.878000   0.637505   1.018410  44.826200  -0.058579   0.025173  29.854300  -0.028223   0.030356  30.031500  -0.591465  -0.755795  39.269100  -0.095517   0.147690  26.153100  -0.018351   0.113774  44.680200  -3.397790  -3.348010  67.164100  -0.047486   0.029482  44.731300  -0.013950   0.039715   1.286080  14.749800   5.923870  -0.322808   1.018430  17.408900  -2.899870  -4.475440   9.026260   0.000000   0.000000   0.000000   3.796950   5.692260  -6.743270  -4.174160  15.586700  -4.888940  -8.082680  -3.685530   5.706940  -0.000000   0.000000  -0.000000
  1.554000  89.897200  -1.032570  -5.396420 -13.553300 -12.108700  -3.029060   7.765810   0.739108  -6.247540  15.480200   1.923320  -0.647754  -8.581760  -0.096491  -1.122850 -17.388200 -19.609000  -3.560010  -3.216970   3.918560 -65.235500  21.747400  -3.178620  -2.961500  -7.781380 -15.000200  12.617400  -3.075990  12.147400  44.546600  33.062200 -71.617100 -14.234700   0.005975   0.001576  -2.117360   0.003424  -0.002997 -23.121600   5.235300 -12.054300 -19.371600  -0.015534  -0.002403 -13.560100  -0.009756   0.000912 -27.689300   1.395270  -2.656760 -30.348100  -0.003075   0.029539 -20.211900   0.019524   0.032525 -22.380300   0.853277  -2.069770 -22.396400  -0.042438  -0.022392 -14.916000  -0.020288  -0.024712 -24.634800   0.150918  -0.328442 -36.953900  -0.001291   0.011223 -24.611300   0.009405  -0.029074   7.131970  -2.352280   7.922920  50.094500  -5.029910  58.637400  -2.154130 -31.220000 101.606000  36.082000 -20.222900  32.964100 -44.278900  39.455900  79.685700  26.142500  -0.004640  -0.007649   8.071220  -0.002587  -0.001689  37.934600   5.084200   6.767020  31.292300  -0.045769  -0.021124  22.274400  -0.037613  -0.005333  29.167100   0.377649   0.676521  36.751700  -0.060420   0.005322  24.476700  -0.036291   0.017435  28.026400  -1.694150  -3.115230  31.141500  -0.077409   0.088870  20.740200  -0.025646   0.072863  39.831000  -3.505430  -4.193880  59.913500  -0.038443   0.065383  39.902300   0.005281   0.050798   1.305260  14.780800   5.936840  -0.330156   0.949485  17.538500  -2.917720  -4.481200   9.111290  -0.000000   0.000000  -0.000000   3.842250   5.661570  -6.724670  -4.212720  15.513800  -4.765440  -8.091910  -3.680930   5.799040  -0.000000   0.000000   0.000000
